<svg id="Layer_1" data-name="Layer 1" xmlns="http://www.w3.org/2000/svg" viewBox="0 0 657 911"><defs><style>.cls-1,.cls-11{fill:#fff;}.cls-2,.cls-3,.cls-4{fill:#4d4c7d;}.cls-10,.cls-11,.cls-3{stroke:#4d4c7d;stroke-miterlimit:10;stroke-width:10px;}.cls-4{font-size:124px;font-family:NordiquePro-Regular, Nordique Pro;}.cls-5{letter-spacing:-0.04em;}.cls-6{letter-spacing:-0.01em;}.cls-7{letter-spacing:0em;}.cls-8{letter-spacing:-0.02em;}.cls-9{letter-spacing:0em;}.cls-10{fill:none;}</style></defs><rect class="cls-1" x="5" y="5" width="647" height="901" rx="4"/><path class="cls-2" d="M699,60V951H62V60H699m1-10H61a9,9,0,0,0-9,9V952a9,9,0,0,0,9,9H700a9,9,0,0,0,9-9V59a9,9,0,0,0-9-9Z" transform="translate(-52 -50)"/><rect class="cls-3" x="352" y="638" width="50" height="37"/><rect class="cls-3" x="351" y="554" width="50" height="37"/><rect class="cls-3" x="350" y="478" width="50" height="37"/><rect class="cls-3" x="349" y="806" width="50" height="37"/><rect class="cls-3" x="352" y="722" width="50" height="37"/><text class="cls-4" transform="translate(85.48 105.99)">co<tspan class="cls-5" x="136.89" y="0">r</tspan><tspan x="166.66" y="0">po</tspan><tspan class="cls-5" x="307.52" y="0">ra</tspan><tspan class="cls-6" x="403" y="0">t</tspan><tspan class="cls-7" x="437.35" y="0">e</tspan><tspan class="cls-8" x="46.19" y="124">s</tspan><tspan class="cls-9" x="92.19" y="124">t</tspan><tspan class="cls-5" x="128.52" y="124">ra</tspan><tspan class="cls-6" x="224" y="124">t</tspan><tspan x="258.35" y="124">egy</tspan></text><rect class="cls-10" x="293" y="278" width="311" height="624"/><rect class="cls-3" x="135" y="531" width="50" height="37"/><rect class="cls-3" x="215" y="531" width="50" height="37"/><rect class="cls-3" x="293" y="531" width="50" height="37"/><rect class="cls-3" x="350" y="402" width="50" height="37"/><rect class="cls-3" x="430" y="402" width="50" height="37"/><rect class="cls-3" x="508" y="402" width="50" height="37"/><rect class="cls-11" x="109" y="491" width="262" height="411"/><rect class="cls-3" x="348" y="324" width="50" height="37"/><rect class="cls-3" x="428" y="324" width="50" height="37"/><rect class="cls-3" x="506" y="324" width="50" height="37"/><rect class="cls-3" x="432" y="638" width="50" height="37"/><rect class="cls-3" x="510" y="638" width="50" height="37"/><rect class="cls-3" x="431" y="554" width="50" height="37"/><rect class="cls-3" x="509" y="554" width="50" height="37"/><rect class="cls-3" x="136" y="706" width="50" height="37"/><rect class="cls-3" x="216" y="706" width="50" height="37"/><rect class="cls-3" x="294" y="706" width="50" height="37"/><rect class="cls-3" x="138" y="643" width="50" height="37"/><rect class="cls-3" x="218" y="643" width="50" height="37"/><rect class="cls-3" x="296" y="643" width="50" height="37"/><rect class="cls-3" x="137" y="580" width="50" height="37"/><rect class="cls-3" x="217" y="580" width="50" height="37"/><rect class="cls-3" x="295" y="580" width="50" height="37"/><rect class="cls-3" x="430" y="478" width="50" height="37"/><rect class="cls-3" x="508" y="478" width="50" height="37"/><rect class="cls-3" x="432" y="722" width="50" height="37"/><rect class="cls-3" x="510" y="722" width="50" height="37"/><rect class="cls-3" x="429" y="806" width="50" height="87"/><rect class="cls-3" x="507" y="806" width="50" height="37"/><rect class="cls-3" x="136" y="517" width="50" height="37"/><rect class="cls-3" x="216" y="517" width="50" height="37"/><rect class="cls-3" x="294" y="517" width="50" height="37"/><rect class="cls-3" x="136" y="769" width="50" height="37"/><rect class="cls-3" x="216" y="769" width="50" height="124"/><rect class="cls-3" x="294" y="769" width="50" height="37"/><rect class="cls-3" x="293" y="832" width="50" height="37"/><rect class="cls-3" x="135" y="832" width="50" height="37"/></svg>