<svg id="Layer_1" data-name="Layer 1" xmlns="http://www.w3.org/2000/svg" viewBox="0 0 657 911"><defs><style>.cls-1{fill:#fff;}.cls-2,.cls-3{fill:#4d4c7d;}.cls-3{font-size:124px;font-family:NordiquePro-Regular, Nordique Pro;}.cls-4{letter-spacing:0.01em;}.cls-5{letter-spacing:-0.01em;}.cls-6{letter-spacing:-0.06em;}.cls-7{letter-spacing:-0.02em;}.cls-8{letter-spacing:0em;}.cls-9{letter-spacing:0.01em;}.cls-10{letter-spacing:0em;}.cls-11{letter-spacing:-0.04em;}.cls-12,.cls-13{fill:none;stroke:#4d4c7d;stroke-miterlimit:10;stroke-width:20px;}.cls-13{stroke-linecap:round;}</style></defs><rect class="cls-1" x="5" y="5" width="647" height="901" rx="4"/><path class="cls-2" d="M699,60V951H62V60H699m1-10H61a9,9,0,0,0-9,9V952a9,9,0,0,0,9,9H700a9,9,0,0,0,9-9V59a9,9,0,0,0-9-9Z" transform="translate(-52 -50)"/><text class="cls-3" transform="translate(84.12 105.99)">m<tspan class="cls-4" x="102.92" y="0">a</tspan><tspan class="cls-5" x="174.84" y="0">r</tspan><tspan class="cls-6" x="207.95" y="0">k</tspan><tspan class="cls-7" x="254.57" y="0">e</tspan><tspan class="cls-8" x="321.28" y="0">t</tspan><tspan class="cls-9" x="357.61" y="0">i</tspan><tspan x="376.46" y="0">ng</tspan><tspan class="cls-7" x="47.55" y="124">s</tspan><tspan class="cls-10" x="93.56" y="124">t</tspan><tspan class="cls-11" x="129.89" y="124">ra</tspan><tspan class="cls-5" x="225.37" y="124">t</tspan><tspan x="259.72" y="124">egy</tspan></text><circle class="cls-12" cx="329" cy="625" r="67"/><ellipse class="cls-12" cx="329" cy="626" rx="162" ry="171"/><circle class="cls-12" cx="327.5" cy="625.5" r="257.5"/><line class="cls-13" x1="332" y1="619" x2="538" y2="380"/><path class="cls-13" d="M640,427" transform="translate(-52 -50)"/><path class="cls-13" d="M590.7,427" transform="translate(-52 -50)"/><path class="cls-13" d="M626,392" transform="translate(-52 -50)"/><polyline class="cls-13" points="503.64 342 507.64 412.36 578 412.36"/><polyline class="cls-13" points="539.14 307.14 540.14 376.86 610.86 376.86"/></svg>