<svg id="Layer_1" data-name="Layer 1" xmlns="http://www.w3.org/2000/svg" viewBox="0 0 657 911"><defs><style>.cls-1{fill:#fff;}.cls-2,.cls-3{fill:#4d4c7d;}.cls-3{font-size:124px;font-family:NordiquePro-Regular, Nordique Pro;}.cls-4{letter-spacing:-0.04em;}.cls-5{letter-spacing:0.02em;}.cls-6{letter-spacing:-0.01em;}.cls-7{letter-spacing:-0.02em;}.cls-8{letter-spacing:0em;}.cls-9{letter-spacing:-0.01em;}.cls-10{fill:none;stroke:#4d4c7d;stroke-miterlimit:10;stroke-width:10px;}</style></defs><rect class="cls-1" x="5" y="5" width="647" height="901" rx="4"/><path class="cls-2" d="M699,60V951H62V60H699m1-10H61a9,9,0,0,0-9,9V952a9,9,0,0,0,9,9H700a9,9,0,0,0,9-9V59a9,9,0,0,0-9-9Z" transform="translate(-52 -50)"/><text class="cls-3" transform="translate(135.15 105.99)">p<tspan class="cls-4" x="70.68" y="0">r</tspan><tspan x="100.44" y="0">o</tspan><tspan class="cls-5" x="170.62" y="0">d</tspan><tspan x="243.78" y="0">u</tspan><tspan class="cls-6" x="305.78" y="0">c</tspan><tspan x="371.25" y="0">t</tspan><tspan class="cls-7" x="-3.47" y="124">s</tspan><tspan class="cls-8" x="42.53" y="124">t</tspan><tspan class="cls-4" x="78.86" y="124">ra</tspan><tspan class="cls-9" x="174.34" y="124">t</tspan><tspan x="208.69" y="124">egy</tspan></text><rect class="cls-10" x="274" y="360" width="258" height="513" rx="102.85"/><rect class="cls-1" x="128" y="532" width="176" height="342" rx="40"/><rect class="cls-10" x="128" y="532" width="176" height="342" rx="40"/><rect class="cls-10" x="189" y="447" width="54" height="79"/><rect class="cls-10" x="376" y="322" width="56" height="33"/><rect class="cls-10" x="381" y="293" width="46" height="22"/><rect class="cls-10" x="340" y="268" width="87" height="18"/></svg>