<svg id="Layer_1" data-name="Layer 1" xmlns="http://www.w3.org/2000/svg" viewBox="0 0 657 911"><defs><style>.cls-1,.cls-10{fill:#fff;}.cls-11,.cls-2,.cls-3{fill:#4d4c7d;}.cls-3{font-size:124px;font-family:NordiquePro-Regular, Nordique Pro;}.cls-4{letter-spacing:0.01em;}.cls-5{letter-spacing:-0.02em;}.cls-6{letter-spacing:0em;}.cls-7{letter-spacing:-0.04em;}.cls-8{letter-spacing:-0.01em;}.cls-12,.cls-9{fill:none;}.cls-10,.cls-11,.cls-12,.cls-9{stroke:#4d4c7d;stroke-miterlimit:10;}.cls-10,.cls-9{stroke-width:10px;}.cls-11,.cls-12{stroke-linecap:round;stroke-width:20px;}</style></defs><rect class="cls-1" x="5" y="5" width="647" height="901" rx="4"/><path class="cls-2" d="M702.36,66.31v891h-637v-891h637m1-10h-639a9,9,0,0,0-9,9v893a9,9,0,0,0,9,9h639a9,9,0,0,0,9-9v-893a9,9,0,0,0-9-9Z" transform="translate(-55.36 -56.31)"/><text class="cls-3" transform="translate(212.03 105.99)">s<tspan class="cls-4" x="48.48" y="0">a</tspan><tspan x="120.4" y="0">les</tspan><tspan class="cls-5" x="-80.35" y="124">s</tspan><tspan class="cls-6" x="-34.35" y="124">t</tspan><tspan class="cls-7" x="1.98" y="124">ra</tspan><tspan class="cls-8" x="97.46" y="124">t</tspan><tspan x="131.81" y="124">egy</tspan></text><rect class="cls-9" x="492.64" y="278" width="111.36" height="624"/><rect class="cls-10" x="195" y="613.69" width="111.64" height="288.31"/><rect class="cls-10" x="344.7" y="491.07" width="111.64" height="411"/><rect class="cls-10" x="39.7" y="706.69" width="111.64" height="195.38"/><line class="cls-11" x1="74.64" y1="582.69" x2="201.64" y2="461.69"/><line class="cls-12" x1="355.64" y1="392.69" x2="201.64" y2="461.69"/><line class="cls-12" x1="408.64" y1="320.69" x2="355.64" y2="392.69"/><polygon class="cls-11" points="424.81 286.69 392.29 310.69 430.64 326.69 424.81 286.69"/></svg>